<?xml version="1.0" encoding="UTF-8" standalone="no"?>
<!-- Created with Inkscape (http://www.inkscape.org/) -->

<svg
   xmlns:dc="http://purl.org/dc/elements/1.1/"
   xmlns:cc="http://creativecommons.org/ns#"
   xmlns:rdf="http://www.w3.org/1999/02/22-rdf-syntax-ns#"
   xmlns:svg="http://www.w3.org/2000/svg"
   xmlns="http://www.w3.org/2000/svg"
   xmlns:sodipodi="http://sodipodi.sourceforge.net/DTD/sodipodi-0.dtd"
   xmlns:inkscape="http://www.inkscape.org/namespaces/inkscape"
   width="110"
   height="110"
   viewBox="0 0 110 110"
   id="svg2"
   version="1.1"
   inkscape:version="0.91 r13725"
   sodipodi:docname="icon.svg"
   inkscape:export-filename="R:\uwat.cf.png"
   inkscape:export-xdpi="209.45"
   inkscape:export-ydpi="209.45">
  <defs
     id="defs4" />
  <sodipodi:namedview
     id="base"
     pagecolor="#ffffff"
     bordercolor="#666666"
     borderopacity="1.0"
     inkscape:pageopacity="0.0"
     inkscape:pageshadow="2"
     inkscape:zoom="2"
     inkscape:cx="-36.760196"
     inkscape:cy="7.1601169"
     inkscape:document-units="px"
     inkscape:current-layer="layer1"
     showgrid="false"
     fit-margin-top="0"
     fit-margin-left="0"
     fit-margin-right="0"
     fit-margin-bottom="0"
     units="px"
     inkscape:window-width="1600"
     inkscape:window-height="837"
     inkscape:window-x="-8"
     inkscape:window-y="-8"
     inkscape:window-maximized="1" />
  <metadata
     id="metadata7">
    <rdf:RDF>
      <cc:Work
         rdf:about="">
        <dc:format>image/svg+xml</dc:format>
        <dc:type
           rdf:resource="http://purl.org/dc/dcmitype/StillImage" />
        <dc:title></dc:title>
      </cc:Work>
    </rdf:RDF>
  </metadata>
  <g
     inkscape:label="Layer 1"
     inkscape:groupmode="layer"
     id="layer1"
     transform="translate(-275.20961,-131.22799)">
    <g
       transform="matrix(0.23343049,0,0,0.23343049,276.8671,132.88565)"
       id="link"
       style="fill:#fcd634;fill-opacity:1;stroke:#231f20;stroke-opacity:1;stroke-width:4.28393052;stroke-miterlimit:4;stroke-dasharray:none">
      <desc
         id="desc4971">Based on https://commons.wikimedia.org/wiki/File:Simpleicons_Interface_link-symbol.svg

Licensed under CC-BY 3.0 Unported.</desc>
      <path
         inkscape:connector-curvature="0"
         d="m 421.512,207.074 -85.795,85.767 c -47.352,47.38 -124.169,47.38 -171.529,0 -7.46,-7.439 -13.296,-15.821 -18.421,-24.465 l 39.864,-39.861 c 1.895,-1.911 4.235,-3.006 6.471,-4.296 2.756,9.416 7.567,18.33 14.972,25.736 23.648,23.667 62.128,23.634 85.762,0 l 85.768,-85.765 c 23.666,-23.664 23.666,-62.135 0,-85.781 -23.635,-23.646 -62.105,-23.646 -85.768,0 l -30.499,30.532 c -24.75,-9.637 -51.415,-12.228 -77.373,-8.424 l 64.991,-64.989 c 47.38,-47.371 124.177,-47.371 171.557,0 47.357,47.369 47.357,124.178 0,171.546 z m -226.804,141.03 -30.521,30.532 c -23.646,23.634 -62.128,23.634 -85.778,0 -23.648,-23.667 -23.648,-62.138 0,-85.795 l 85.778,-85.767 c 23.665,-23.662 62.121,-23.662 85.767,0 7.388,7.39 12.204,16.302 14.986,25.706 2.249,-1.307 4.56,-2.369 6.454,-4.266 l 39.861,-39.845 c -5.092,-8.678 -10.958,-17.03 -18.421,-24.477 -47.348,-47.371 -124.172,-47.371 -171.543,0 L 35.526,249.96 c -47.366,47.385 -47.366,124.172 0,171.553 47.371,47.356 124.177,47.356 171.547,0 l 65.008,-65.003 c -25.972,3.826 -52.644,1.213 -77.373,-8.406 z"
         id="path4320"
         style="fill:#fcd634;fill-opacity:1;stroke:#231f20;stroke-opacity:1;stroke-width:4.28393052;stroke-miterlimit:4;stroke-dasharray:none" />
    </g>
    <g
       transform="matrix(0.11965233,0,0,0.11965233,330.6093,186.5226)"
       id="g4322" />
    <g
       transform="matrix(0.11965233,0,0,0.11965233,330.6093,186.5226)"
       id="g4324" />
    <g
       transform="matrix(0.11965233,0,0,0.11965233,330.6093,186.5226)"
       id="g4326" />
    <g
       transform="matrix(0.11965233,0,0,0.11965233,330.6093,186.5226)"
       id="g4328" />
    <g
       transform="matrix(0.11965233,0,0,0.11965233,330.6093,186.5226)"
       id="g4330" />
    <g
       transform="matrix(0.11965233,0,0,0.11965233,330.6093,186.5226)"
       id="g4332" />
    <g
       transform="matrix(0.11965233,0,0,0.11965233,330.6093,186.5226)"
       id="g4334" />
    <g
       transform="matrix(0.11965233,0,0,0.11965233,330.6093,186.5226)"
       id="g4336" />
    <g
       transform="matrix(0.11965233,0,0,0.11965233,330.6093,186.5226)"
       id="g4338" />
    <g
       transform="matrix(0.11965233,0,0,0.11965233,330.6093,186.5226)"
       id="g4340" />
    <g
       transform="matrix(0.11965233,0,0,0.11965233,330.6093,186.5226)"
       id="g4342" />
    <g
       transform="matrix(0.11965233,0,0,0.11965233,330.6093,186.5226)"
       id="g4344" />
    <g
       transform="matrix(0.11965233,0,0,0.11965233,330.6093,186.5226)"
       id="g4346" />
    <g
       transform="matrix(0.11965233,0,0,0.11965233,330.6093,186.5226)"
       id="g4348" />
    <g
       transform="matrix(0.11965233,0,0,0.11965233,330.6093,186.5226)"
       id="g4350" />
    <text
       xml:space="preserve"
       style="font-style:normal;font-weight:normal;font-size:65.68777466px;line-height:125%;font-family:sans-serif;letter-spacing:0px;word-spacing:0px;fill:#cf0f3d;fill-opacity:1;stroke:#231f20;stroke-width:1;stroke-linecap:butt;stroke-linejoin:round;stroke-miterlimit:4;stroke-dasharray:none;stroke-opacity:1"
       x="292.64102"
       y="236.72408"
       id="text4973"
       sodipodi:linespacing="125%"
       transform="scale(0.98646697,1.0137187)"><tspan
         sodipodi:role="line"
         id="tspan4975"
         x="292.64102"
         y="236.72408"
         style="font-style:normal;font-variant:normal;font-weight:bold;font-stretch:normal;font-size:56.30380249px;font-family:'Segoe UI';-inkscape-font-specification:'Segoe UI Bold';fill:#cf0f3d;fill-opacity:1;stroke:#231f20;stroke-width:1;stroke-linejoin:round;stroke-miterlimit:4;stroke-dasharray:none;stroke-opacity:1">UW</tspan></text>
  </g>
</svg>
