<?xml version="1.0" standalone="no"?>
<!DOCTYPE svg PUBLIC "-//W3C//DTD SVG 20010904//EN"
 "http://www.w3.org/TR/2001/REC-SVG-20010904/DTD/svg10.dtd">
<svg version="1.0" xmlns="http://www.w3.org/2000/svg"
 width="1024.000000pt" height="1024.000000pt" viewBox="0 0 1024.000000 1024.000000"
 preserveAspectRatio="xMidYMid meet">
<metadata>
Created by potrace 1.11, written by Peter Selinger 2001-2013
</metadata>
<g transform="translate(0.000000,1024.000000) scale(0.100000,-0.100000)"
fill="#000000" stroke="none">
<path d="M7235 10124 c-585 -60 -1069 -258 -1499 -612 -87 -72 -1689 -1662
-1682 -1670 2 -2 75 7 162 19 135 20 203 23 444 24 311 0 404 -8 645 -56 172
-34 236 -52 428 -116 l137 -47 398 395 c413 412 450 443 619 528 166 83 314
120 509 128 224 10 411 -29 610 -127 559 -273 832 -889 664 -1500 -29 -105
-127 -300 -198 -395 -38 -49 -450 -468 -1079 -1096 -866 -864 -1031 -1025
-1104 -1073 -214 -140 -446 -209 -704 -209 -553 0 -1031 347 -1200 873 -15 47
-29 86 -30 88 -2 2 -40 -19 -86 -47 -74 -44 -138 -103 -544 -510 l-460 -461
19 -32 c40 -70 187 -286 241 -353 30 -38 96 -111 145 -161 l90 -90 0 -831 0
-830 -92 -89 c-51 -49 -125 -111 -165 -137 -112 -74 -270 -145 -400 -179 -110
-29 -130 -31 -298 -32 -116 -1 -204 4 -247 13 l-68 13 0 1147 c0 902 -3 1151
-13 1164 -10 14 -38 17 -200 19 l-187 3 897 895 c812 809 906 900 985 949 335
205 718 251 1085 130 379 -125 674 -424 798 -809 15 -47 29 -86 30 -88 1 -1
40 20 86 47 75 44 136 102 544 510 l460 461 -19 32 c-43 75 -188 288 -240 353
-74 92 -240 259 -347 349 -383 323 -878 537 -1389 601 -147 18 -471 21 -616 5
-506 -56 -993 -259 -1404 -586 -108 -85 -2132 -2108 -2232 -2230 -316 -385
-512 -823 -590 -1319 -32 -202 -32 -588 0 -790 176 -1124 1015 -2009 2112
-2230 47 -10 135 -34 195 -55 234 -80 416 -105 724 -97 251 6 379 26 564 87
288 96 491 249 653 490 43 64 82 110 121 140 32 25 275 260 540 523 376 374
482 475 486 460 3 -10 97 -376 208 -813 111 -437 209 -803 217 -812 14 -17 51
-18 502 -18 408 0 489 2 499 14 9 10 646 2451 652 2496 0 3 141 -554 314
-1238 172 -683 318 -1249 325 -1257 11 -13 80 -15 479 -15 256 0 472 4 480 9
19 12 980 3750 971 3776 -7 20 -18 20 -449 23 l-441 2 -10 -22 c-5 -13 -124
-594 -265 -1292 -140 -698 -256 -1271 -258 -1272 -2 -2 -139 571 -306 1274
-167 702 -307 1285 -312 1295 -9 15 -31 17 -237 17 l-227 0 881 883 c485 485
915 923 956 973 315 383 512 824 590 1319 18 117 22 181 22 395 0 214 -4 278
-22 395 -185 1179 -1083 2077 -2256 2256 -126 20 -506 34 -611 23z m591 -113
c1149 -173 2020 -1054 2190 -2216 25 -166 25 -524 0 -690 -70 -481 -257 -914
-554 -1285 -42 -53 -482 -502 -996 -1018 l-921 -922 -173 0 c-169 0 -173 0
-182 -22 -5 -13 -30 -103 -56 -202 l-47 -178 -46 -34 c-121 -87 -369 -217
-534 -278 -109 -41 -329 -106 -356 -106 -15 0 -29 58 -99 396 -45 218 -87 403
-93 410 -10 12 -89 14 -482 12 -417 -3 -471 -5 -480 -19 -7 -12 17 -123 93
-418 57 -221 100 -404 96 -408 -10 -11 -253 44 -389 87 l-127 41 0 334 c0 193
-4 345 -10 359 l-10 26 -433 0 c-323 0 -436 -3 -445 -12 -7 -7 -12 -35 -12
-62 l-1 -51 -79 83 c-72 77 -218 272 -275 368 l-24 40 447 447 c247 246 455
447 463 447 10 0 21 -16 28 -41 7 -23 37 -89 67 -147 185 -364 520 -615 937
-703 145 -31 381 -31 523 -1 203 44 377 119 534 231 64 45 345 320 1116 1093
1111 1113 1090 1091 1183 1289 97 207 126 342 126 589 0 199 -12 281 -61 430
-128 383 -424 694 -799 839 -182 71 -263 85 -485 86 -265 0 -397 -29 -615
-134 -174 -85 -242 -142 -634 -535 l-364 -364 -116 40 c-147 49 -352 100 -512
127 -215 35 -364 44 -647 39 l-265 -5 709 706 c390 389 752 741 804 783 378
303 863 508 1320 558 52 5 111 12 130 14 86 10 431 -4 556 -23z m-2875 -2786
c298 -35 571 -115 844 -249 277 -136 486 -288 700 -507 129 -132 208 -231 305
-381 l60 -93 -427 -428 c-376 -376 -486 -480 -497 -466 -1 2 -11 27 -20 54
-32 89 -117 241 -182 327 -387 517 -1105 683 -1689 390 -191 -95 -185 -89
-1165 -1068 l-925 -924 -176 0 c-123 0 -179 -4 -187 -12 -9 -9 -12 -73 -12
-228 l0 -215 -40 -93 c-148 -344 -148 -740 0 -1084 l40 -93 0 -310 c0 -170 5
-362 11 -425 42 -468 178 -803 422 -1042 43 -43 74 -78 69 -78 -35 0 -302 104
-437 170 -772 378 -1294 1104 -1421 1975 -25 166 -25 524 0 690 70 481 256
913 554 1285 109 138 2119 2145 2250 2249 411 324 872 512 1382 564 99 10 428
6 541 -8z m1830 -4901 c-148 -555 -271 -1018 -273 -1029 -4 -15 -6 -17 -10 -5
-5 12 -337 1633 -342 1664 0 4 40 19 89 32 270 73 548 190 740 313 33 21 61
37 62 36 1 0 -118 -455 -266 -1011z m-5202 464 l-1 -383 -25 95 c-29 117 -41
325 -25 448 11 81 42 222 49 222 1 0 3 -172 2 -382z m3218 236 c64 -20 185
-51 271 -68 l155 -31 72 -282 c40 -155 71 -284 69 -285 -7 -7 -191 12 -318 33
-72 11 -186 35 -255 52 l-126 32 -3 293 c-2 208 1 292 9 292 6 0 63 -16 126
-36z m144 -709 c70 -13 198 -32 285 -41 88 -9 162 -19 165 -22 3 -4 29 -99 58
-211 l52 -205 -475 -475 c-261 -261 -478 -473 -480 -470 -3 3 6 41 20 84 74
239 94 429 101 966 l6 436 71 -18 c39 -10 128 -30 197 -44z m-1181 -614 c0
-445 -107 -707 -332 -814 -97 -47 -170 -61 -303 -61 -360 2 -550 185 -619 595
l-6 36 87 -15 c135 -21 388 -11 519 22 228 57 471 185 599 316 22 22 43 40 47
40 4 0 8 -54 8 -119z"/>
</g>
</svg>
